- 
http://www.Speed.Cd      fast  and The Hottest Private Tracker on the net

   signup is open now

Please Seed back to make the speed Faster!!!

------------------nfo--------------------------
-








































          
          
              
              
                    
                    
                    
                    

3.Musketeers.2011.BRRip.XviD.AC3-SiC

Poster:
[img]http://img195.imageshack.us/img195/1658/mv5bmtc3ntqwmjewnl5bml5.jpg[/img]

IMDB Link:
http://www.imdb.com/title/tt1977681/

Description:
Alexandra D'Artagnan, junior member of NSA uncovers a conspiracy that the goal is to assassinate the American president...

MediaInfo:
General
Complete name                    : 3.Musketeers.2011.BRRip.XviD.AC3-SiC.avi
Format                           : AVI
Format/Info                      : Audio Video Interleave
File size                        : 1.37 GiB
Duration                         : 1h 27mn
Overall bit rate                 : 2 247 Kbps

Video
ID                               : 0
Format                           : MPEG-4 Visual
Format profile                   : Advanced Simple@L5
Format settings, BVOP            : Yes
Format settings, QPel            : No
Format settings, GMC             : No warppoints
Format settings, Matrix          : Default (MPEG)
Muxing mode                      : Packed bitstream
Codec ID                         : XVID
Codec ID/Hint                    : XviD
Duration                         : 1h 27mn
Bit rate                         : 1 792 Kbps
Width                            : 720 pixels
Height                           : 384 pixels
Display aspect ratio             : 1.875
Frame rate                       : 23.976 fps
Color space                      : YUV
Chroma subsampling               : 4:2:0
Bit depth                        : 8 bits
Scan type                        : Progressive
Bits/(Pixel*Frame)               : 0.270
Stream size                      : 1.09 GiB (80%)
Writing library                  : XviD 64

Audio
ID                               : 1
Format                           : AC-3
Format/Info                      : Audio Coding 3
Mode extension                   : CM (complete main)
Codec ID                         : 2000
Duration                         : 1h 27mn
Bit rate mode                    : Constant
Bit rate                         : 448 Kbps
Channel(s)                       : 6 channels
Channel positions                : Front: L C R, Side: L R, LFE
Sampling rate                    : 48.0 KHz
Bit depth                        : 16 bits
Stream size                      : 279 MiB (20%)
Alignment                        : Aligned on interleaves
Interleave, duration             : 64 ms (1.53 video frames)
Interleave, preload duration     : 192 ms
Title                            : untouchables-3.musketeers.2011.720p - [2] 


Screenshots:
[img]http://img5.imageshack.us/img5/3662/snap1ib.png[/img]
[img]http://img710.imageshack.us/img710/3272/snap2i.png[/img]
[img]http://img27.imageshack.us/img27/5642/snap3e.png[/img]
[img]http://img535.imageshack.us/img535/9546/snap4b.png[/img]
[img]http://img560.imageshack.us/img560/6131/snap5u.png[/img]


Note : did my thing and it turned out nice... 

Source: 720p UNTOUCHABLES thnx

Enjoy!

Respects to CaptainHomey, Cyanide, CM8, Rx, THC, ELEKTRI4KA, 
Killerhz, PA, YeFsTe, Box, MrRep and everyone in the struggle...